<svg xmlns="http://www.w3.org/2000/svg" width="49" height="31" viewBox="0 0 49 31"><g><g><path stroke="#fff" fill="#3db39e" d="M49 23.825C49 27.788 45.851 31 41.968 31H25.095C21.729 31 19 28.215 19 24.782a6.211 6.211 0 0 1 3.043-5.352 4.313 4.313 0 0 1-.23-1.343c0-2.376 1.888-4.304 4.218-4.304.445 0 .865.09 1.268.22C28.64 11.055 31.545 9 34.938 9c4.384 0 7.945 3.424 8.356 7.789 3.249.633 5.705 3.538 5.705 7.036zm-8.954-6.836a1.191 1.191 0 0 0-1.81 0l-6.282 6.982-2.048-2.277a1.196 1.196 0 0 0-1.816 0 1.54 1.54 0 0 0 0 2.017l2.733 3.038c.334.372.803.473 1.23.349.375.05.765-.063 1.054-.385L40.047 19c.5-.554.5-1.456 0-2.011z"/><path stroke="#fff" fill="#eef0f0" d="M49 23.825C49 27.788 45.851 31 41.968 31H25.095C21.729 31 19 28.215 19 24.782a6.211 6.211 0 0 1 3.043-5.352 4.313 4.313 0 0 1-.23-1.343c0-2.376 1.888-4.304 4.218-4.304.445 0 .865.09 1.268.22C28.64 11.055 31.545 9 34.938 9c4.384 0 7.945 3.424 8.356 7.789 3.249.633 5.705 3.538 5.705 7.036zm-8.954-6.836a1.191 1.191 0 0 0-1.81 0l-6.282 6.982-2.048-2.277a1.196 1.196 0 0 0-1.816 0 1.54 1.54 0 0 0 0 2.017l2.733 3.038c.334.372.803.473 1.23.349.375.05.765-.063 1.054-.385L40.047 19c.5-.554.5-1.456 0-2.011z"/></g><g><path stroke="#fff" fill="#3db39e" d="M36.999 18.195c0 4.863-3.88 8.804-8.67 8.804H7.516C3.367 27 0 23.583 0 19.37A7.616 7.616 0 0 1 3.754 12.8a5.267 5.267 0 0 1-.284-1.649c0-2.916 2.33-5.282 5.203-5.282.549 0 1.067.11 1.564.27C11.889 2.522 15.472 0 19.657 0c5.407 0 9.8 4.203 10.306 9.559C33.97 10.336 37 13.9 37 18.195zm-11.953-7.207a1.192 1.192 0 0 0-1.81 0l-6.282 6.983-2.048-2.277a1.196 1.196 0 0 0-1.816 0 1.54 1.54 0 0 0 0 2.017l2.733 3.038c.334.372.803.473 1.23.349a1.18 1.18 0 0 0 1.054-.385l6.94-7.712c.5-.555.5-1.457 0-2.013z"/><path stroke="#fff" fill="#64a4d7" d="M36.999 18.195c0 4.863-3.88 8.804-8.67 8.804H7.516C3.367 27 0 23.583 0 19.37A7.616 7.616 0 0 1 3.754 12.8a5.267 5.267 0 0 1-.284-1.649c0-2.916 2.33-5.282 5.203-5.282.549 0 1.067.11 1.564.27C11.889 2.522 15.472 0 19.657 0c5.407 0 9.8 4.203 10.306 9.559C33.97 10.336 37 13.9 37 18.195zm-11.953-7.207a1.192 1.192 0 0 0-1.81 0l-6.282 6.983-2.048-2.277a1.196 1.196 0 0 0-1.816 0 1.54 1.54 0 0 0 0 2.017l2.733 3.038c.334.372.803.473 1.23.349a1.18 1.18 0 0 0 1.054-.385l6.94-7.712c.5-.555.5-1.457 0-2.013z"/></g></g></svg>