<svg xmlns="http://www.w3.org/2000/svg" width="38" height="52" viewBox="0 0 38 52"><g><g><g><path fill="#e4e7e7" d="M16.52 26.468h17.532c1.076 0 1.948.88 1.948 1.964v21.604A1.956 1.956 0 0 1 34.052 52H16.519a1.956 1.956 0 0 1-1.948-1.964V28.432c0-1.085.873-1.964 1.948-1.964z"/></g><g><path fill="#307cb8" d="M28.317-.01c.362.06.609.406.552.773l-.415 2.66a.662.662 0 0 1-.759.557.676.676 0 0 1-.552-.773l.414-2.66a.662.662 0 0 1 .76-.557zm5.611 2.335c.31.19.41.593.221.898l-1.364 2.214a.656.656 0 0 1-.903.208.653.653 0 0 1-.221-.898l1.364-2.213a.656.656 0 0 1 .903-.209zM23.071.895l.623 2.541a.643.643 0 0 1-.482.782.666.666 0 0 1-.795-.488l-.624-2.54a.643.643 0 0 1 .483-.783.666.666 0 0 1 .795.489zM37.87 6.519c.2.282.14.674-.137.877l-2.001 1.469a.614.614 0 0 1-.864-.142.633.633 0 0 1 .136-.877l2.002-1.469a.613.613 0 0 1 .864.142zm-19.748-3.25l1.456 2.038a.633.633 0 0 1-.137.877.614.614 0 0 1-.864-.143l-1.455-2.037a.633.633 0 0 1 .136-.877.613.613 0 0 1 .864.142z"/></g><g><path fill="#c2c5c5" d="M18.468 31.705h14.285v1.964H18.468zm0 4.583h14.285v1.964H18.468zm0 4.583h14.285v1.963H18.468zm0 4.582h14.285v1.964H18.468z"/></g><g><path fill="#64a4d7" d="M2.571 12h23.143a2.562 2.562 0 0 1 2.572 2.553v28.085a2.562 2.562 0 0 1-2.572 2.553H2.571A2.562 2.562 0 0 1 0 42.638V14.553A2.562 2.562 0 0 1 2.571 12z"/></g><g><path fill="#a5ceef" d="M5.143 18.808H24v2.554H5.143zm0 5.958H24v2.553H5.143zm0 5.957H24v2.553H5.143zm0 5.958H24v2.553H5.143z"/></g></g><g><path fill="#64a4d7" d="M25.5 7a6.5 6.5 0 1 1 0 13 6.5 6.5 0 0 1 0-13z"/></g></g></svg>