<svg xmlns="http://www.w3.org/2000/svg" width="53" height="36" viewBox="0 0 53 36"><g><g><path fill="#3d81b7" d="M2.099.72h15.743A2.09 2.09 0 0 1 19.94 2.8v11.44a2.09 2.09 0 0 1-2.1 2.08h-7.337c-.294 0-1.309.136-1.587.412-.786.624-.731.79-1.835 1.666.027-.021-1.31 1.198-1.31-.008.002-1.233-.005-2.07-.005-2.07H2.099A2.09 2.09 0 0 1 0 14.24V2.8C0 1.652.94.72 2.099.72z"/></g><g><path fill="#e4e7e7" d="M50.901 5.92H35.158A2.09 2.09 0 0 0 33.06 8v11.44c0 1.15.94 2.08 2.1 2.08h7.337c.294 0 1.309.136 1.587.412.786.624.731.79 1.835 1.666-.027-.021 1.31 1.198 1.31-.008-.002-1.233.005-2.07.005-2.07h3.668A2.09 2.09 0 0 0 53 19.44V8a2.09 2.09 0 0 0-2.099-2.08z"/></g><g><path fill="#64a4d7" d="M15.218 10.6h23.089a2.09 2.09 0 0 1 2.099 2.08v17.68a2.09 2.09 0 0 1-2.1 2.08h-12.06c-.294 0-1.308.137-1.586.412l-3.41 2.706c.027-.02-1.31 1.198-1.31-.008.002-1.232-.005-3.11-.005-3.11h-4.717a2.09 2.09 0 0 1-2.1-2.08V12.68c0-1.149.94-2.08 2.1-2.08z"/></g></g></svg>